<svg width="24" height="24" viewBox="0 0 24 24" fill="none" xmlns="http://www.w3.org/2000/svg">
<g clip-path="url(#clip0_1759_1064)">
<path d="M19 4.225C19.39 4.225 19.7 4.535 19.7 4.925V13.925C19.7 14.315 19.39 14.625 19 14.625H5C4.61 14.625 4.3 14.315 4.3 13.925V4.925C4.3 4.535 4.61 4.225 5 4.225H19ZM19 2.925H5C3.9 2.925 3 3.825 3 4.925V13.925C3 15.025 3.9 15.925 5 15.925H19C20.1 15.925 21 15.025 21 13.925V4.925C21 3.825 20.1 2.925 19 2.925Z" stroke-width='0'/>
<path d="M21 20.425H3" stroke-width="1.3" stroke-miterlimit="10" stroke-linecap="round"/>
</g>
<defs>
<clipPath id="clip0_1759_1064">
<rect width="19.3" height="18.15" fill="white" transform="translate(2.3501 2.925)"/>
</clipPath>
</defs>
</svg>
