<svg width="24" height="24" viewBox="0 0 24 24" fill="none" xmlns="http://www.w3.org/2000/svg">
<path d="M19.9896 21.3801H16.6996C15.7896 21.3801 15.0496 20.6401 15.0496 19.7301V16.9901C15.0496 16.8001 14.8896 16.6401 14.6996 16.6401H9.28961C9.09961 16.6401 8.93961 16.8001 8.93961 16.9901V19.7301C8.93961 20.6401 8.19961 21.3801 7.28961 21.3801H3.99963C3.08963 21.3801 2.34961 20.6401 2.34961 19.7301V10.8001C2.34961 9.98012 2.71962 9.23012 3.35962 8.72012L10.3596 3.19012C11.3296 2.43012 12.6796 2.43012 13.6396 3.19012L20.6396 8.72012C21.2796 9.22012 21.6496 9.98012 21.6496 10.8001V19.7301C21.6496 20.6401 20.9096 21.3801 19.9996 21.3801H19.9896ZM9.27963 15.3401H14.6896C15.5996 15.3401 16.3396 16.0801 16.3396 16.9901V19.7301C16.3396 19.9201 16.4996 20.0801 16.6896 20.0801H19.9796C20.1696 20.0801 20.3296 19.9201 20.3296 19.7301V10.8001C20.3296 10.3801 20.1396 10.0001 19.8196 9.74012L12.8196 4.21012C12.3296 3.82012 11.6396 3.82012 11.1496 4.21012L4.14963 9.74012C3.81963 10.0001 3.63962 10.3801 3.63962 10.8001V19.7301C3.63962 19.9201 3.79962 20.0801 3.98962 20.0801H7.27963C7.46963 20.0801 7.62961 19.9201 7.62961 19.7301V16.9901C7.62961 16.0801 8.36963 15.3401 9.27963 15.3401Z" stroke-width='0'/>
</svg>
