<svg width="24" height="24" viewBox="0 0 24 24" fill="none" xmlns="http://www.w3.org/2000/svg">
<g clip-path="url(#clip0_1759_1081)">
<path d="M15 13.3C17.59 13.3 19.7 15.41 19.7 18V19C19.7 19.39 19.39 19.7 19 19.7H5C4.61 19.7 4.3 19.39 4.3 19V18C4.3 15.41 6.41 13.3 9 13.3H15ZM15 12H9C5.69 12 3 14.69 3 18V19C3 20.1 3.9 21 5 21H19C20.1 21 21 20.1 21 19V18C21 14.69 18.31 12 15 12Z" stroke-width='0'/>
<path d="M12 4.3C13.49 4.3 14.7 5.51 14.7 7C14.7 8.49 13.49 9.7 12 9.7C10.51 9.7 9.3 8.49 9.3 7C9.3 5.51 10.51 4.3 12 4.3ZM12 3C9.79 3 8 4.79 8 7C8 9.21 9.79 11 12 11C14.21 11 16 9.21 16 7C16 4.79 14.21 3 12 3Z" stroke-width='0'/>
</g>
<defs>
<clipPath id="clip0_1759_1081">
<rect width="18" height="18" fill="white" transform="translate(3 3)"/>
</clipPath>
</defs>
</svg>
