<svg width="14" height="14" viewBox="0 0 14 14" fill="none" xmlns="http://www.w3.org/2000/svg">
<path id="Vector" d="M13.0002 6.56667H7.43355V0.999999C7.43355 0.759999 7.24024 0.566666 7.00024 0.566666C6.76024 0.566666 6.56689 0.759999 6.56689 0.999999V6.56667H1.00024C0.760244 6.56667 0.566895 6.76 0.566895 7C0.566895 7.24 0.760244 7.43333 1.00024 7.43333H6.56689V13C6.56689 13.24 6.76024 13.4333 7.00024 13.4333C7.24024 13.4333 7.43355 13.24 7.43355 13V7.43333H13.0002C13.2402 7.43333 13.4336 7.24 13.4336 7C13.4336 6.76 13.2402 6.56667 13.0002 6.56667Z" fill="white"/>
</svg>
