<svg width="14" height="14" viewBox="0 0 14 14" fill="none" xmlns="http://www.w3.org/2000/svg">
<g id="Layer_6" clip-path="url(#clip0_1558_88)">
<path id="Vector" d="M13.0002 6.56667H7.43356V0.999999C7.43356 0.759999 7.24023 0.566666 7.00023 0.566666C6.76023 0.566666 6.56689 0.759999 6.56689 0.999999V6.56667H1.00023C0.760228 6.56667 0.566895 6.76 0.566895 7C0.566895 7.24 0.760228 7.43333 1.00023 7.43333H6.56689V13C6.56689 13.24 6.76023 13.4333 7.00023 13.4333C7.24023 13.4333 7.43356 13.24 7.43356 13V7.43333H13.0002C13.2402 7.43333 13.4336 7.24 13.4336 7C13.4336 6.76 13.2402 6.56667 13.0002 6.56667Z" fill="#BDBDBD"/>
</g>
<defs>
<clipPath id="clip0_1558_88">
<rect width="12.8667" height="12.8667" fill="white" transform="translate(0.566895 0.566666)"/>
</clipPath>
</defs>
</svg>
