<svg width="24" height="24" viewBox="0 0 24 24" fill="none" xmlns="http://www.w3.org/2000/svg" stroke-width='0'>
<g clip-path="url(#clip0_1759_2454)">
<path d="M19 4.3C19.39 4.3 19.7 4.61 19.7 5V19C19.7 19.39 19.39 19.7 19 19.7H5C4.61 19.7 4.3 19.39 4.3 19V5C4.3 4.61 4.61 4.3 5 4.3H19ZM19 3H5C3.9 3 3 3.9 3 5V19C3 20.1 3.9 21 5 21H19C20.1 21 21 20.1 21 19V5C21 3.9 20.1 3 19 3Z"/>
<path d="M16.9996 9.1501H6.99961C6.63961 9.1501 6.34961 8.8601 6.34961 8.5001C6.34961 8.1401 6.63961 7.8501 6.99961 7.8501H16.9996C17.3596 7.8501 17.6496 8.1401 17.6496 8.5001C17.6496 8.8601 17.3596 9.1501 16.9996 9.1501Z"/>
<path d="M16.9996 12.6501H6.99961C6.63961 12.6501 6.34961 12.3601 6.34961 12.0001C6.34961 11.6401 6.63961 11.3501 6.99961 11.3501H16.9996C17.3596 11.3501 17.6496 11.6401 17.6496 12.0001C17.6496 12.3601 17.3596 12.6501 16.9996 12.6501Z"/>
<path d="M16.9996 16.1501H6.99961C6.63961 16.1501 6.34961 15.8601 6.34961 15.5001C6.34961 15.1401 6.63961 14.8501 6.99961 14.8501H16.9996C17.3596 14.8501 17.6496 15.1401 17.6496 15.5001C17.6496 15.8601 17.3596 16.1501 16.9996 16.1501Z"/>
</g>
<defs>
<clipPath id="clip0_1759_2454">
<rect width="18" height="18" fill="white" transform="translate(3 3)"/>
</clipPath>
</defs>
</svg>
